<?xml version="1.0" standalone="no"?>
<!DOCTYPE svg PUBLIC "-//W3C//DTD SVG 20010904//EN"
 "http://www.w3.org/TR/2001/REC-SVG-20010904/DTD/svg10.dtd">
<svg version="1.0" xmlns="http://www.w3.org/2000/svg"
 width="300.000000pt" height="100.000000pt" viewBox="0 0 300.000000 100.000000"
 preserveAspectRatio="xMidYMid meet">

<g transform="translate(0.000000,100.000000) scale(0.100000,-0.100000)"
fill="#000000" stroke="none">
<path d="M220 726 l-125 -73 -3 -151 -3 -150 132 -76 131 -76 127 74 126 74 2
154 3 153 -129 73 c-71 39 -131 72 -132 72 -2 -1 -60 -34 -129 -74z m54 -100
c9 -35 40 -42 72 -17 15 12 37 21 50 21 21 0 24 -5 24 -34 0 -19 5 -38 10 -41
6 -4 8 -11 5 -16 -4 -5 -1 -9 5 -9 6 0 9 -4 5 -9 -3 -5 -1 -12 5 -16 6 -4 8
-11 5 -16 -4 -5 -2 -9 4 -9 6 0 8 -6 5 -14 -4 -9 6 -18 30 -27 66 -24 50 -78
-26 -86 -42 -5 -57 0 -147 48 -144 76 -156 87 -147 133 7 34 67 116 86 116 4
0 11 -11 14 -24z"/>
<path d="M245 620 c-9 -14 33 -56 44 -45 3 3 1 9 -5 13 -6 4 -15 15 -21 26 -8
14 -12 16 -18 6z"/>
<path d="M376 611 c-18 -7 -18 -8 -2 -14 27 -11 36 -8 36 8 0 16 -5 17 -34 6z"/>
<path d="M212 587 c-8 -10 -6 -16 8 -25 11 -7 31 -30 45 -52 19 -30 35 -42 67
-51 24 -7 55 -23 69 -36 22 -20 35 -24 75 -21 l49 4 -36 16 c-39 19 -62 41
-52 51 3 4 1 7 -5 7 -6 0 -9 7 -6 15 4 8 1 15 -6 15 -6 0 -8 5 -5 10 3 6 1 10
-4 10 -6 0 -10 10 -8 23 2 19 -3 22 -28 21 -16 -1 -47 -5 -68 -9 -31 -6 -42
-4 -61 14 -19 18 -25 19 -34 8z"/>
<path d="M187 528 c-8 -30 0 -37 123 -104 87 -47 113 -57 150 -55 24 1 49 6
55 12 7 8 -4 10 -41 5 -47 -6 -52 -4 -79 24 -16 16 -38 30 -49 30 -33 1 -67
24 -96 66 -31 46 -55 54 -63 22z"/>
<path d="M704 500 c0 -118 2 -167 3 -108 2 60 2 156 0 215 -1 60 -3 11 -3
-107z"/>
<path d="M864 671 c-12 -5 -31 -22 -44 -38 -18 -22 -21 -37 -17 -73 6 -52 29
-75 90 -90 84 -20 115 -51 87 -85 -26 -31 -110 -4 -110 35 0 6 -19 10 -41 10
-41 0 -41 0 -35 -32 13 -67 66 -94 174 -90 24 2 44 12 68 36 29 29 34 41 34
79 0 58 -32 91 -103 107 -69 17 -87 27 -87 51 0 28 43 46 75 31 14 -6 25 -18
25 -27 0 -11 11 -15 40 -15 33 0 40 3 40 20 0 11 -13 34 -29 52 -25 28 -35 32
-87 35 -32 1 -69 -1 -80 -6z"/>
<path d="M2422 643 c2 -31 7 -38 24 -37 l22 0 -22 -29 c-18 -25 -21 -45 -24
-148 l-4 -119 41 0 41 0 0 102 0 101 23 -21 c14 -14 39 -23 63 -25 38 -2 39
-1 39 33 l0 35 -62 3 c-62 3 -63 3 -63 32 0 29 1 29 63 32 l62 3 3 38 3 37
-106 0 -106 0 3 -37z"/>
<path d="M2662 668 c-33 -33 -2 -71 54 -66 43 4 65 28 48 56 -13 21 -84 28
-102 10z"/>
<path d="M2013 635 c-12 -8 -27 -31 -33 -50 -8 -24 -18 -35 -31 -35 -14 0 -19
-7 -19 -30 0 -23 4 -30 20 -30 17 0 19 -8 22 -87 l3 -88 37 -3 37 -3 3 88 c3
83 4 88 26 91 17 3 22 10 22 33 0 24 -4 29 -25 29 -23 0 -25 3 -25 50 0 54 -4
58 -37 35z"/>
<path d="M2859 621 c-16 -16 -29 -38 -29 -50 0 -13 -8 -21 -22 -23 -17 -2 -24
-11 -26 -30 -3 -24 0 -28 22 -28 26 0 26 0 26 -90 l0 -90 40 0 40 0 0 90 c0
90 0 90 26 90 22 0 25 4 22 28 -2 19 -9 28 -25 30 -20 3 -23 9 -23 53 0 57
-10 61 -51 20z"/>
<path d="M1218 536 c-34 -23 -35 -23 -57 -5 -13 11 -27 19 -32 19 -5 0 -9 -71
-9 -159 0 -145 2 -161 21 -185 11 -14 29 -26 40 -26 17 0 19 8 19 74 l0 74 31
-15 c77 -39 169 26 169 119 0 64 -62 128 -123 128 -13 0 -40 -11 -59 -24z m76
-62 c35 -34 12 -104 -34 -104 -36 0 -60 23 -60 57 0 53 59 82 94 47z"/>
<path d="M1510 547 c-19 -7 -44 -27 -57 -46 -91 -135 99 -271 215 -155 33 33
34 38 30 89 -5 61 -25 90 -75 111 -39 17 -66 17 -113 1z m100 -76 c26 -49 2
-103 -45 -103 -50 0 -74 65 -38 104 22 24 69 24 83 -1z"/>
<path d="M1742 433 l3 -118 40 0 40 0 3 70 c3 79 13 95 53 95 26 0 29 3 29 35
0 32 -2 35 -30 35 -18 0 -37 -8 -47 -19 -16 -20 -17 -20 -41 0 -49 38 -53 30
-50 -98z"/>
<path d="M2118 545 c-3 -3 16 -61 42 -129 l47 -123 -23 -57 -23 -56 25 0 c43
0 79 48 124 165 23 61 51 131 61 158 l19 47 -26 0 c-30 0 -78 -47 -88 -84 -3
-14 -11 -38 -17 -53 -11 -27 -12 -25 -38 52 -27 78 -28 80 -62 83 -19 2 -37 0
-41 -3z"/>
<path d="M2672 433 l3 -118 38 0 c20 0 37 3 37 8 0 4 0 45 0 92 0 78 -2 88
-25 110 -13 14 -31 25 -40 25 -13 0 -15 -16 -13 -117z"/>
</g>
</svg>
